HIERARCHY
ROOT Hips
{
  OFFSET 0 0 0
  CHANNELS 6 Xposition Yposition Zposition Zrotation Yrotation Xrotation
  JOINT LeftThigh
  {
    OFFSET 8.409438 0 -5.917753
    CHANNELS 3 Zrotation Yrotation Xrotation
    JOINT LeftLeg
    {
      OFFSET 0 0 -42.358652
      CHANNELS 3 Zrotation Yrotation Xrotation
      JOINT LeftFoot
      {
        OFFSET 0 0 -39.357303
        CHANNELS 3 Zrotation Yrotation Xrotation
      }
    }
  }
  JOINT RightThigh
  {
    OFFSET -8.409438 0 -5.917753
    CHANNELS 3 Zrotation Yrotation Xrotation
    JOINT RightLeg
    {
      OFFSET 0 0 -42.358652
      CHANNELS 3 Zrotation Yrotation Xrotation
      JOINT RightFoot
      {
        OFFSET 0 0 -39.357303
        CHANNELS 3 Zrotation Yrotation Xrotation
      }
    }
  }
  JOINT SpineLow
  {
    OFFSET 0 0 4.719101
    CHANNELS 3 Zrotation Yrotation Xrotation
    JOINT SpineMid
    {
      OFFSET 0 0 12.899191
      CHANNELS 3 Zrotation Yrotation Xrotation
      JOINT Chest
      {
        OFFSET 0 0 12.899191
        CHANNELS 3 Zrotation Yrotation Xrotation
        JOINT LeftShoulder
        {
          OFFSET 7.550562 1.41573 9.438202
          CHANNELS 3 Zrotation Yrotation Xrotation
          JOINT LeftArm
          {
            OFFSET 9.155056 0 4.247191
            CHANNELS 3 Zrotation Yrotation Xrotation
            JOINT LeftForearm
            {
              OFFSET 0 0 25.771955
              CHANNELS 3 Zrotation Yrotation Xrotation
              JOINT LeftHand
              {
                OFFSET 0 0 25.197169
                CHANNELS 3 Zrotation Yrotation Xrotation
              }
            }
          }
        }
        JOINT RightShoulder
        {
          OFFSET -7.550562 1.41573 9.438202
          CHANNELS 3 Zrotation Yrotation Xrotation
          JOINT RightArm
          {
            OFFSET -9.155056 0 4.247191
            CHANNELS 3 Zrotation Yrotation Xrotation
            JOINT RightForearm
            {
              OFFSET 0 0 -25.771955
              CHANNELS 3 Zrotation Yrotation Xrotation
              JOINT RightHand
              {
                OFFSET 0 0 -25.197169
                CHANNELS 3 Zrotation Yrotation Xrotation
              }
            }
          }
        }
        JOINT Neck
        {
          OFFSET 0 0 15.101124
          CHANNELS 3 Zrotation Yrotation Xrotation
          JOINT Head
          {
            OFFSET 0 0 11.325843
            CHANNELS 3 Zrotation Yrotation Xrotation
            End Site
            {
              OFFSET 0 0 14.157303
            }
          }
        }
      }
    }
  }
}
MOTION
Frames: 16
Frame Time: 0.0
0.0  89.887642  0.0  -2.47171  -10.127088  -95.928171  14.214745  -15.872755  7.449679  -0.773702  -2.252781  6.168199  -0.74912  -0.317317  -0.811446  -12.011302  9.658546  2.984434  -11.816524  4.088036  4.545263  2.005487  -0.012801  -0.429245  -0.858455  -0.400369  0.508821  -2.354998  -1.076094  1.404935  -2.354998  -1.076094  1.404935  -9.88306  11.728258  9.20161  147.01367  31.964988  -154.684085  -35.363701  -7.012917  42.395521  78.276669  -2.143316  -4.367072  -0.257178  -15.322472  15.665784  76.472544  27.514653  42.413334  4.428246  36.753075  -41.861074  93.574551  -0.837007  -7.871953  -11.941564  -9.068709  -26.645516  -9.357046  -6.298506  -20.129277  
0.0  89.887642  0.0  -2.5178  -9.822345  -95.799043  14.220333  -15.860554  7.240055  -0.825261  -2.403245  6.050017  -0.781013  -0.323902  -0.814297  -12.05285  9.579882  2.810943  -11.70756  4.071677  4.735951  1.941469  -0.030756  -0.41016  -0.867526  -0.379202  0.498714  -2.379173  -1.018419  1.376684  -2.379173  -1.018419  1.376684  -10.079582  11.693058  9.176988  146.28135  31.952116  -154.890645  -35.490205  -7.173503  41.391972  78.057991  -2.418845  -4.54481  -0.570539  -15.530313  15.630812  77.835547  27.627346  42.532019  5.834776  35.261353  -39.573141  93.765001  -0.775622  -8.377945  -12.082773  -9.129302  -26.650511  -9.465501  -6.337895  -20.135994  
0.0  89.887642  0.0  -2.549213  -9.544947  -95.710785  14.285781  -15.912166  7.059894  -0.778002  -2.529346  6.017742  -0.873088  -0.322794  -0.856671  -12.174999  9.542639  2.674264  -11.534501  3.992799  4.922158  1.869239  -0.046049  -0.394469  -0.889754  -0.367133  0.483035  -2.439441  -0.985548  1.333721  -2.439441  -0.985548  1.333721  -10.195934  11.774876  9.136475  145.510739  31.913219  -155.342712  -35.485763  -7.415579  40.577179  77.983613  -2.482334  -4.743626  -0.868747  -15.624027  15.653113  79.074715  27.713657  42.576531  7.071826  33.766632  -37.474823  94.011107  -0.827345  -8.63526  -12.199453  -9.107571  -26.611742  -9.551493  -6.317238  -20.108668  
0.0  89.887642  0.0  -2.569641  -9.180943  -95.616805  14.266998  -15.895207  6.88191  -0.835525  -2.655077  5.885641  -0.910038  -0.329376  -0.853132  -12.473484  9.501056  2.525528  -11.244596  3.98697  5.091339  1.836478  -0.057148  -0.385949  -0.921558  -0.349763  0.469701  -2.525828  -0.937944  1.297073  -2.525828  -0.937944  1.297073  -10.316856  11.804435  9.106652  144.672958  31.898938  -155.78609  -35.396811  -7.722134  39.855164  77.900379  -2.444801  -4.831632  -1.063725  -15.694416  15.768894  79.83519  27.882824  42.479822  8.323272  32.97287  -35.487219  94.382595  -0.796483  -8.729212  -12.314245  -9.074495  -26.551181  -9.635251  -6.288561  -20.064857  
0.0  89.887642  0.0  -2.565187  -8.871786  -95.569186  14.26392  -15.912418  6.732321  -0.811958  -2.763411  5.817681  -0.951703  -0.321516  -0.849882  -12.907064  9.422367  2.354842  -11.122887  3.994731  5.224762  1.984537  -0.042143  -0.353953  -0.958404  -0.338894  0.464027  -2.626244  -0.90774  1.281646  -2.626244  -0.90774  1.281646  -10.260325  11.882987  9.096763  144.101768  31.897542  -156.12337  -35.056258  -7.866386  39.240621  77.798413  -2.392712  -4.744513  -1.921131  -15.731797  15.469347  81.345607  27.328432  42.762498  9.51115  32.8864  -33.550648  94.848754  -0.653577  -8.786793  -12.410165  -8.977786  -26.516473  -9.702737  -6.212345  -20.039347  
0.0  89.887642  0.0  -2.541414  -8.494019  -95.503804  14.237539  -15.860526  6.605169  -0.887121  -2.876397  5.661419  -0.967849  -0.331917  -0.841008  -13.268535  9.391828  2.199827  -10.768505  4.019249  5.394492  1.966347  -0.031657  -0.32527  -0.988349  -0.325935  0.454322  -2.707713  -0.872139  1.25499  -2.707712  -0.872139  1.25499  -10.32863  11.847151  9.056607  143.966738  31.872094  -156.221813  -34.544384  -7.764787  38.62452  77.604912  -2.379967  -4.537038  -2.060745  -15.655004  15.479544  81.832536  27.19191  42.610172  10.562634  32.981337  -31.866189  95.174875  -0.489706  -8.962793  -12.544838  -8.896109  -26.481031  -9.799898  -6.145798  -20.014052  
0.0  89.887642  0.0  -2.515092  -8.196106  -95.499262  14.030219  -15.797861  6.4621  -0.862523  -2.994778  5.57256  -0.805181  -0.327009  -0.70135  -13.781029  9.325874  2.013457  -10.423778  4.062571  5.598855  2.188121  0.051488  -0.305155  -0.969256  -0.323131  0.469238  -2.65566  -0.864241  1.295395  -2.65566  -0.864241  1.295395  -10.462915  11.820518  8.904703  143.998733  31.878628  -156.205931  -33.85086  -7.483834  38.040183  77.331903  -2.39923  -4.297075  -2.452075  -15.510255  15.350672  82.503372  26.924986  42.635076  10.977291  32.557409  -30.800253  95.306498  -0.442139  -9.258398  -12.804451  -8.797522  -26.548419  -9.991797  -6.059127  -20.067534  
0.0  89.887642  0.0  -2.493251  -7.798051  -95.418211  13.894126  -15.723745  6.345149  -0.890357  -3.105718  5.417571  -0.803087  -0.346509  -0.686222  -14.009102  9.27985  1.832965  -10.227395  4.114235  5.862646  2.235673  0.07223  -0.317827  -1.004025  -0.324211  0.459669  -2.750597  -0.866904  1.269735  -2.750597  -0.866904  1.269735  -10.334072  11.803856  8.818259  144.053399  31.862865  -156.126968  -33.16651  -7.250134  37.48397  77.110045  -2.387917  -4.086632  -2.613003  -15.234158  15.371017  83.028617  26.6647  42.618655  10.899616  31.701741  -30.308106  95.388728  -0.500453  -9.52951  -12.926081  -8.726124  -26.585633  -10.080778  -5.999418  -20.096468  
0.0  89.887642  0.0  -2.457735  -7.460357  -95.357389  13.561818  -15.601061  6.156601  -0.872842  -3.217811  5.319081  -0.695441  -0.349482  -0.602158  -14.169087  9.197378  1.598773  -10.308283  4.22912  6.137648  2.42363  0.112515  -0.309971  -1.010819  -0.326469  0.469456  -2.769338  -0.872532  1.296666  -2.769338  -0.872532  1.296666  -10.343197  11.78717  8.650368  144.027194  31.807485  -156.09621  -32.511446  -7.161488  37.079238  77.024561  -2.272856  -3.950298  -3.040217  -14.964572  15.256786  83.518572  26.309735  42.683343  10.686785  30.907854  -30.115488  95.465837  -0.551835  -9.784763  -13.118348  -8.672899  -26.698346  -10.224699  -5.948763  -20.183279  
0.0  89.887642  0.0  -2.450227  -7.053878  -95.294532  13.348917  -15.54809  6.07793  -0.892549  -3.310629  5.169497  -0.677609  -0.37161  -0.589906  -14.109272  9.123576  1.398641  -10.223984  4.327208  6.52448  2.469125  0.125278  -0.303225  -1.062234  -0.330067  0.471103  -2.909972  -0.881276  1.301995  -2.909972  -0.881276  1.301995  -10.102071  11.797335  8.611311  143.80447  31.786431  -156.129535  -32.060108  -7.226425  36.816543  77.035759  -2.082908  -3.8571  -3.066331  -14.715994  15.260056  83.458039  26.110589  42.583292  10.652788  30.455499  -29.982342  95.567916  -0.617837  -9.975343  -13.161804  -8.640501  -26.761265  -10.257006  -5.921207  -20.230676  
0.0  89.887642  0.0  -2.446698  -6.655744  -95.280435  12.910961  -15.504312  5.963374  -1.015221  -3.3513  4.971681  -0.484675  -0.384703  -0.447439  -14.85858  8.941321  0.941624  -9.643938  4.532778  6.989352  2.746746  0.196816  -0.264398  -1.11886  -0.336914  0.479666  -3.06501  -0.898464  1.326456  -3.06501  -0.898464  1.326456  -9.936688  11.834983  8.578321  143.785773  31.705282  -156.206441  -31.739282  -7.298932  36.775653  77.047265  -1.874255  -3.807313  -3.048743  -14.427746  15.234439  83.401154  25.804373  42.532939  10.430774  30.19908  -29.959622  95.563291  -0.733558  -10.101532  -13.21944  -8.600248  -26.826542  -10.299667  -5.887064  -20.279957  
0.0  89.887642  0.0  -2.398714  -6.197475  -95.236276  12.571022  -15.427184  5.884948  -0.969394  -3.410809  4.888036  -0.472582  -0.41531  -0.421647  -14.657488  8.930203  0.755592  -9.467297  4.611162  7.45542  2.730962  0.214441  -0.275065  -1.156102  -0.33224  0.491497  -3.166866  -0.884371  1.359059  -3.166866  -0.884371  1.359059  -9.895166  11.800315  8.521309  143.62316  31.656826  -156.268774  -31.745248  -7.403674  36.788074  77.042665  -1.68263  -3.788907  -3.161866  -14.12701  15.147459  83.215965  25.572198  42.423051  10.056001  29.872196  -30.141938  95.465894  -0.920235  -10.182527  -13.325905  -8.586781  -26.903687  -10.380235  -5.870684  -20.339249  
0.0  89.887642  0.0  -2.343741  -5.619366  -95.172166  12.01548  -15.343225  5.700696  -1.074586  -3.435103  4.760101  -0.28987  -0.422513  -0.247505  -15.514984  8.787656  0.206587  -8.642783  4.789417  8.080605  2.970895  0.308325  -0.272032  -1.207029  -0.322551  0.50225  -3.305998  -0.856301  1.388625  -3.305998  -0.856301  1.388624  -9.800011  11.76519  8.489036  143.566223  31.647635  -156.388224  -31.728848  -7.385893  36.963546  77.052597  -1.4989  -3.768937  -3.304892  -13.88461  15.021376  83.106537  25.229702  42.473701  9.282871  29.455754  -30.584379  95.388365  -1.122096  -10.206772  -13.480649  -8.584322  -26.990944  -10.497635  -5.860232  -20.407027  
0.0  89.887642  0.0  -2.196499  -5.033058  -95.140425  11.558445  -15.199448  5.545061  -1.011885  -3.415052  4.831055  -0.290818  -0.457741  -0.213147  -15.28374  8.882607  -0.0017  -8.549433  4.874381  8.627269  2.914567  0.339846  -0.289632  -1.261912  -0.299268  0.517798  -3.455688  -0.790708  1.430581  -3.455688  -0.790708  1.430581  -9.674186  11.645675  8.452302  143.488051  31.627545  -156.430455  -31.741952  -7.373626  37.153852  77.075183  -1.293212  -3.727406  -3.469328  -13.644899  14.80831  82.720444  24.912765  42.341061  8.75364  29.121709  -31.001606  95.319022  -1.327508  -10.214152  -13.589456  -8.606955  -27.075694  -10.581557  -5.87069  -20.472543  
0.0  89.887642  0.0  -2.10773  -4.257516  -95.058941  10.921965  -15.116158  5.225252  -1.041766  -3.390742  4.952378  -0.240376  -0.464299  -0.110354  -16.273362  8.831008  -0.619245  -7.703946  5.061852  9.403079  3.192664  0.466703  -0.274824  -1.338021  -0.289479  0.529798  -3.663637  -0.761634  1.463713  -3.663637  -0.761634  1.463713  -9.578203  11.590394  8.370928  143.70433  31.613516  -156.549676  -31.443669  -7.188617  37.50062  77.12295  -1.066122  -3.680672  -3.869187  -13.39447  14.467905  82.341359  24.48353  42.219561  8.325406  28.951553  -31.429894  95.289208  -1.506035  -10.187181  -13.748504  -8.607658  -27.18888  -10.702743  -5.861787  -20.559869  
0.0  89.887642  0.0  -1.934595  -3.483564  -95.003995  10.373935  -14.975679  4.866021  -1.073136  -3.261988  5.251174  -0.268664  -0.481761  -0.067015  -16.234456  8.988967  -0.89513  -7.801851  5.14709  10.111443  3.153271  0.574513  -0.324394  -1.415075  -0.259743  0.53882  -3.873659  -0.678143  1.487473  -3.873659  -0.678143  1.487474  -9.452846  11.458536  8.334419  143.749707  31.645643  -156.604352  -31.250857  -7.073785  37.745463  77.212067  -0.813429  -3.66545  -4.049525  -13.144166  14.230103  81.663114  24.19483  41.937936  7.989573  28.911815  -31.849067  95.178614  -1.64811  -9.986927  -13.882922  -8.629364  -27.273007  -10.805848  -5.870357  -20.625333  
